<?xml version="1.0" standalone="no"?><!DOCTYPE svg PUBLIC "-//W3C//DTD SVG 1.1//EN"
        "http://www.w3.org/Graphics/SVG/1.1/DTD/svg11.dtd">
<svg t="1644387207769" class="icon" viewBox="0 0 1064 1024" version="1.1" xmlns="http://www.w3.org/2000/svg"
     p-id="38472"
     width="207.8125" height="200">
    <defs>
        <style type="text/css"></style>
    </defs>
    <path d="M931.84 136.06912h-199.68v-67.9936C732.16 30.59712 702.21824 0 665.6 0h-266.24c-36.61824 0-66.56 30.63808-66.56 68.03456v68.03456H133.12C59.88352 136.06912 0 197.30432 0 272.13824v612.352c0 74.87488 59.88352 136.11008 133.12 136.11008h798.72c73.23648 0 133.12-61.2352 133.12-136.11008V272.13824c0-74.83392-59.88352-136.06912-133.12-136.06912z m-532.48-33.9968c0-20.43904 13.312-33.9968 33.30048-33.9968h199.63904c19.98848 0 33.30048 13.55776 33.30048 33.9968v33.9968h-266.24v-33.9968z m599.04 782.41792c0 37.43744-29.94176 68.07552-66.56 68.07552H133.12c-36.61824 0-66.56-30.63808-66.56-68.07552v-374.21056h336.11776c-3.31776 10.24-3.31776 23.83872-3.31776 33.9968 0 74.87488 59.92448 136.11008 133.12 136.11008 73.23648 0 133.12-61.2352 133.12-136.06912 0-10.24-3.31776-23.83872-3.31776-33.9968h336.11776v374.1696z m-532.48-340.1728c0-13.59872 3.31776-23.83872 9.99424-33.9968h113.13152c6.67648 10.15808 9.99424 20.39808 9.99424 33.9968 0 37.43744-29.94176 68.03456-66.56 68.03456s-66.56-30.59712-66.56-68.03456z m532.48-102.07232H66.56V272.13824c0-37.39648 29.94176-67.9936 66.56-67.9936h798.72c36.61824 0 66.56 30.59712 66.56 67.9936v170.10688z"
          p-id="38473" fill="#1296db"></path>
</svg>